<?xml version="1.0" standalone="no"?>
<!DOCTYPE svg PUBLIC "-//W3C//DTD SVG 20010904//EN"
 "http://www.w3.org/TR/2001/REC-SVG-20010904/DTD/svg10.dtd">
<svg version="1.0" xmlns="http://www.w3.org/2000/svg"
 width="500.000000pt" height="500.000000pt" viewBox="0 0 500.000000 500.000000"
 preserveAspectRatio="xMidYMid meet">

<g transform="translate(0.000000,500.000000) scale(0.100000,-0.100000)"
fill="#000000" stroke="none">
<path d="M1945 3883 c-312 -9 -961 -36 -965 -41 -3 -2 292 -2 655 2 660 6
1195 0 1195 -15 0 -4 -9 -11 -20 -14 -11 -4 -33 -17 -48 -30 l-28 -23 -669
-11 c-919 -16 -923 -17 -134 -19 565 -2 699 -5 714 -15 17 -13 14 -20 -47
-118 -36 -57 -82 -138 -103 -179 -48 -95 -105 -220 -100 -220 1 0 40 64 85
143 45 78 102 169 126 203 59 84 147 162 222 197 57 26 71 29 136 25 55 -4 88
-12 135 -36 65 -33 394 -262 386 -270 -2 -3 -35 2 -72 9 -42 9 -134 14 -238
14 -164 0 -172 -1 -227 -27 -78 -36 -118 -97 -118 -179 l0 -58 -70 -49 -70
-49 -117 -7 c-65 -3 -176 -16 -248 -27 -156 -25 -431 -37 -910 -40 -192 -1
-469 -5 -615 -9 -178 -5 -25 -7 465 -5 606 3 723 1 690 -9 -30 -10 -233 -16
-790 -25 -412 -6 -841 -11 -952 -11 -132 0 -204 -4 -208 -11 -14 -21 7 -81 42
-120 29 -32 51 -44 127 -68 115 -36 142 -50 188 -98 53 -55 76 -115 99 -265
34 -217 39 -239 65 -264 69 -70 215 9 639 347 224 178 262 205 380 273 267
152 452 216 755 260 210 30 480 30 671 0 47 -8 52 -24 8 -24 -51 0 -150 -29
-224 -67 -107 -54 -156 -96 -475 -408 -463 -452 -592 -559 -814 -676 -51 -27
-139 -64 -197 -83 -96 -31 -344 -80 -449 -89 -25 -2 0 -4 55 -5 270 -5 549 71
754 205 198 129 320 234 691 593 304 295 353 338 448 401 108 71 179 92 305
87 86 -3 111 -7 161 -31 88 -41 174 -134 230 -249 25 -50 43 -94 41 -96 -11
-11 -65 50 -96 107 -49 92 -119 166 -176 185 -62 21 -91 20 -160 -6 -81 -30
-149 -101 -201 -208 -97 -201 -143 -444 -187 -990 -15 -178 -31 -318 -41 -352
-23 -78 -73 -134 -151 -170 -75 -34 -162 -50 -853 -158 -147 -23 -126 -23 160
-5 405 26 653 59 768 103 l54 21 52 -24 c28 -13 64 -27 79 -30 60 -15 30 -23
-111 -30 -81 -3 -178 -10 -217 -14 -67 -7 -64 -8 80 -15 238 -14 533 -2 630
24 154 41 308 143 414 276 33 40 64 80 68 88 7 12 275 145 628 311 135 63 216
92 323 116 l104 23 -6 81 c-28 346 -25 690 8 856 13 69 39 149 49 149 2 0 -4
-31 -14 -68 -30 -120 -43 -261 -43 -482 1 -244 19 -407 60 -526 14 -40 23 -78
20 -83 -8 -12 -125 -32 -246 -41 -89 -7 -84 -7 70 -8 259 -2 279 10 324 189
36 142 46 282 45 649 -1 371 -7 425 -60 541 -55 120 -150 189 -306 224 -40 9
-73 18 -73 21 0 2 14 26 31 54 40 66 37 99 -13 123 -32 16 -96 22 -392 38
l-355 19 -58 34 c-116 67 -197 108 -311 155 -152 64 -237 89 -347 101 -78 9
-847 11 -1110 3z m2214 -394 c51 -5 98 -12 103 -15 14 -9 -18 -39 -84 -78 -50
-31 -63 -34 -81 -25 -34 18 -197 131 -197 136 0 5 106 -2 259 -18z m361 1 c0
-30 -100 -130 -130 -130 -21 0 -16 8 43 61 37 33 67 67 67 75 0 8 5 14 10 14
6 0 10 -9 10 -20z m-1107 -65 c42 -7 92 -22 110 -32 63 -36 103 -169 58 -192
-53 -29 -450 -42 -578 -20 l-63 11 -44 -39 c-39 -35 -48 -38 -90 -35 -56 5
-54 9 39 79 52 39 66 55 71 83 14 83 51 128 124 148 52 15 284 13 373 -3z
m647 -84 c0 -5 -26 -12 -57 -16 -135 -14 -231 -28 -272 -41 -43 -13 -71 -10
-54 6 30 28 383 75 383 51z m512 -61 c47 -10 105 -28 128 -40 77 -39 168 -151
185 -226 l7 -29 -20 29 c-42 61 -110 73 -161 31 -90 -77 -131 -273 -150 -731
-9 -199 -12 -225 -34 -275 -40 -91 -94 -137 -277 -232 -98 -50 -528 -269 -562
-285 -7 -3 52 165 65 185 4 7 70 44 145 83 147 74 245 134 302 183 41 36 90
105 90 128 0 15 -6 15 -62 3 -35 -7 -114 -21 -177 -29 -103 -15 -116 -19 -134
-43 -35 -46 -116 -122 -131 -122 -10 0 -16 22 -21 83 -9 108 -31 205 -67 297
-34 85 -52 118 -118 210 -37 52 -51 83 -68 154 -40 166 -138 287 -296 367 -43
21 -85 39 -92 39 -8 0 -14 4 -14 9 0 15 90 30 230 36 159 8 275 28 310 53 15
12 27 32 30 53 5 33 5 34 100 56 52 13 122 26 155 30 l60 6 -73 -68 c-126
-117 -238 -284 -315 -470 -45 -109 -40 -111 24 -10 161 257 328 442 452 501
116 55 300 64 489 24z m-1552 -165 c46 -10 51 -13 32 -19 -13 -4 -54 -2 -93 4
-58 10 -68 14 -58 26 7 9 20 12 38 7 14 -4 51 -12 81 -18z m1813 -267 c38 -78
50 -189 51 -463 1 -274 -9 -374 -46 -472 -20 -54 -40 -67 -65 -42 -9 9 -8 19
3 41 32 62 45 162 51 389 6 252 -6 417 -38 511 -11 33 -17 64 -13 69 12 20 39
4 57 -33z m-1576 -9 c39 -19 113 -102 113 -127 0 -6 -19 0 -42 13 -54 30 -147
65 -213 80 l-50 11 40 22 c51 27 97 27 152 1z m-212 -160 c279 -38 505 -269
572 -583 11 -51 14 -108 10 -201 -3 -113 -8 -143 -36 -224 -93 -275 -295 -457
-547 -492 -93 -13 -212 1 -286 33 -50 21 -57 33 -35 61 11 15 17 14 72 -5 83
-29 212 -35 295 -14 206 53 359 210 436 446 24 76 27 101 28 225 1 158 -12
221 -69 341 -99 206 -277 340 -467 352 -59 3 -78 8 -78 19 0 15 18 53 25 53 2
0 38 -5 80 -11z m-90 -141 c-35 -77 -48 -174 -43 -300 5 -99 -1 -132 -16 -92
-13 34 -6 260 10 315 26 87 45 129 60 129 9 0 7 -14 -11 -52z m123 37 c58 -14
131 -44 159 -67 10 -8 1 -24 -37 -65 -57 -62 -122 -173 -146 -249 l-16 -50
-54 0 -53 1 -7 63 c-7 66 1 168 18 242 12 50 54 140 66 140 4 0 35 -7 70 -15z
m362 -300 c0 -11 -13 -15 -53 -15 -66 0 -144 -37 -234 -110 -65 -52 -96 -55
-40 -3 97 89 200 139 295 142 22 1 32 -4 32 -14z m4 -35 c19 -7 30 -24 46 -77
21 -65 39 -223 27 -223 -4 0 -30 10 -59 22 -44 18 -73 22 -175 22 l-122 1 -23
50 c-12 28 -24 53 -26 57 -5 10 115 97 166 120 35 16 82 29 134 37 4 1 18 -3
32 -9z m-604 -121 c20 -27 21 -32 7 -47 -8 -9 -22 -33 -30 -52 l-15 -35 -1 36
c-1 38 10 129 15 129 1 0 12 -14 24 -31z m476 -292 c68 -54 144 -156 144 -197
0 -23 -17 -8 -29 26 -18 50 -118 153 -192 196 -35 21 -67 39 -73 41 -5 2 -6 8
-2 15 7 12 82 -27 152 -81z m-506 41 c0 -6 10 -32 22 -56 l21 -45 -34 -31 -34
-30 -3 73 c-2 41 -1 80 2 88 7 16 26 17 26 1z m451 -49 c68 -46 117 -101 156
-175 l28 -53 -20 -37 c-21 -38 -151 -184 -165 -184 -4 0 -11 24 -14 53 -10 73
-50 189 -95 273 l-39 71 27 56 c29 63 23 63 122 -4z m-403 -96 c-33 -35 -78
-66 -86 -59 -8 9 91 95 101 89 5 -3 -2 -16 -15 -30z m217 -86 c4 -57 3 -123
-5 -172 -12 -81 -54 -195 -72 -195 -6 0 -7 8 -2 18 49 112 58 157 57 300 0 78
3 142 8 142 4 0 10 -42 14 -93z m-37 -28 c4 -121 -9 -201 -45 -281 -18 -40
-31 -58 -44 -58 -33 0 -123 22 -167 41 -41 18 -43 21 -37 51 4 18 15 44 26 58
53 67 99 146 128 217 l33 78 51 -1 52 -2 3 -103z"/>
<path d="M4095 3053 c-39 -6 -72 -37 -82 -77 -4 -17 -7 -203 -8 -413 0 -330 2
-377 13 -345 32 87 41 188 42 435 0 287 4 309 67 327 21 6 79 10 128 8 82 -3
90 -5 90 -23 0 -18 -6 -19 -76 -17 -96 4 -154 -10 -164 -41 -4 -12 -11 -155
-15 -317 -7 -297 -11 -329 -50 -413 -7 -15 -11 -29 -8 -32 5 -5 173 19 226 32
13 3 30 15 38 28 23 35 51 186 73 390 12 105 31 245 42 311 12 67 19 129 16
138 -6 14 -26 16 -154 15 -81 -1 -161 -4 -178 -6z"/>
<path d="M1455 3690 c-409 -4 -448 -6 -300 -13 428 -19 801 -78 952 -149 125
-58 192 -181 194 -353 0 -60 2 -66 11 -45 55 122 198 402 242 471 l54 87 -32
6 c-31 6 -203 6 -1121 -4z"/>
<path d="M398 3023 c6 -2 18 -2 25 0 6 3 1 5 -13 5 -14 0 -19 -2 -12 -5z"/>
<path d="M1905 2759 c-213 -14 -360 -51 -448 -111 -42 -28 -297 -248 -297
-256 0 -3 10 4 23 15 32 29 211 153 284 197 35 21 95 45 140 56 124 30 393 52
393 31 0 -15 -29 -21 -157 -32 -168 -13 -312 -43 -327 -68 -3 -4 18 0 47 10
102 36 202 18 226 -39 11 -26 10 -36 -7 -75 -34 -76 -108 -116 -258 -138 -74
-11 -75 -12 -57 -31 28 -31 24 -97 -8 -139 -74 -97 -313 -143 -382 -73 -21 21
-26 22 -31 8 -9 -23 -9 -23 26 -55 20 -20 28 -33 21 -40 -5 -5 -70 -25 -144
-45 -118 -30 -126 -34 -69 -28 117 11 320 54 416 89 209 76 346 172 634 447
120 114 222 218 226 230 5 16 1 27 -16 40 -24 20 -47 20 -235 7z"/>
<path d="M2103 2012 c-18 -9 -63 -43 -101 -75 -237 -197 -488 -323 -744 -372
-46 -9 -165 -19 -266 -22 -100 -3 -185 -9 -187 -13 -9 -14 284 -34 478 -33
188 2 199 1 219 -19 18 -18 20 -29 16 -82 -6 -71 -24 -110 -75 -167 l-36 -40
29 6 c164 38 222 62 310 128 85 65 128 115 152 179 21 56 42 180 42 248 0 29
6 41 25 54 46 30 48 25 42 -97 -14 -288 -130 -428 -437 -528 -107 -35 -86 -36
73 -4 135 27 307 88 373 132 128 87 167 203 181 530 7 174 2 193 -41 193 -11
-1 -35 -9 -53 -18z"/>
</g>
</svg>
